<svg xmlns="http://www.w3.org/2000/svg" viewBox="0 0 887.78 167.12"><defs><style>.cls-1{fill:#fff;}</style></defs><g id="Layer_2" data-name="Layer 2"><g id="Layer_1-2" data-name="Layer 1"><path class="cls-1" d="M229.51,47.56A23.44,23.44,0,0,0,240.7,27.25c0-15.53-11.56-24.8-30.92-24.8H188.1V102.1h27.8c9.89,0,18.3-3.06,24.3-8.83a27.78,27.78,0,0,0,8.52-20.19C248.72,61.07,242.26,52.49,229.51,47.56ZM222,39.88c-3.58,2.39-8.85,3.5-16.58,3.5H199.9V14h11.78c10.53,0,16.82,5,16.82,13.28A15.12,15.12,0,0,1,222,39.88Zm.34,49.75c-1,.08-2.12.21-3.28.34a77.22,77.22,0,0,1-8.33.61H199.9V54.91h5.66c9.29,0,16.58.6,22,3.55a16.92,16.92,0,0,1,9,14.76C236.52,82.65,228.26,89.14,222.34,89.63Z"/><polygon class="cls-1" points="275.1 2.45 263.31 2.45 263.31 102.1 312.64 102.1 312.64 90.58 275.1 90.58 275.1 2.45"/><path class="cls-1" d="M381.49,65.46c0,7.55,0,14.07-4.95,20.19-3.94,5-9.38,7.38-16.62,7.38s-12.68-2.42-16.63-7.39c-5-6.11-5-12.63-5-20.18v-63H326.55V67c0,23.18,12.79,37.59,33.37,37.59S393.29,90.14,393.29,67V2.45h-11.8Z"/><polygon class="cls-1" points="415.36 102.1 473.12 102.1 473.12 90.58 427.15 90.58 427.15 54.09 473.12 54.09 473.12 42.57 427.15 42.57 427.15 13.97 473.12 13.97 473.12 2.45 415.36 2.45 415.36 102.1"/><path class="cls-1" d="M509.44,39.15l-1.9-1.41c-5.28-4-8.31-9.2-8.31-14.3,0-5.65,4.19-11.38,12.19-11.38,7.7,0,12.14,5,17.16,11.58l.61.8,9.45-7.33-.57-.79C531.84,7.84,524.34,0,511.69,0,497.63,0,487,10.25,487,23.85c0,7.34,3.65,15.56,8.67,19.54,3.3,2.68,6.34,5.09,9.11,7.3,15.62,12.42,22.75,18.08,22.75,26.74S520.05,93,510.47,93c-7.2,0-14-5.42-19.52-15.67l-.5-.92-10,6.07.45.84c8,14.66,17.39,21.2,30.39,21.2,15.7,0,28.48-12.23,28.48-27.25C539.76,61.57,527,52.17,509.44,39.15Z"/><polygon class="cls-1" points="548.91 13.97 570.94 13.97 570.94 102.1 582.73 102.1 582.73 13.97 604.49 13.97 604.49 2.45 548.91 2.45 548.91 13.97"/><path class="cls-1" d="M661.29,0c-29,0-51.73,23.14-51.73,52.68,0,29.08,23.08,51.87,52.55,51.87s52.41-23,52.41-52.28C714.52,22.47,691.63,0,661.29,0Zm41,52.14c0,23.31-17.4,40.89-40.48,40.89-22.47,0-40.07-17.73-40.07-40.35,0-25.76,20.38-41.16,40.07-41.16C681.73,11.52,702.31,26.71,702.31,52.14Z"/><polygon class="cls-1" points="796.29 75.56 733.31 2.79 733.01 2.45 729.51 2.45 729.51 102.1 741.3 102.1 741.3 29.91 804.45 102.1 808.08 102.1 808.08 2.45 796.29 2.45 796.29 75.56"/><polygon class="cls-1" points="887.78 13.97 887.78 2.45 830.01 2.45 830.01 102.1 887.78 102.1 887.78 90.58 841.81 90.58 841.81 54.09 887.78 54.09 887.78 42.57 841.81 42.57 841.81 13.97 887.78 13.97"/><path class="cls-1" d="M4.56,135.17h7.21A22.62,22.62,0,0,1,19,136a7.77,7.77,0,0,1,5.13,7.51,7.85,7.85,0,0,1-3.61,6.81c-2.21,1.39-5.42,1.56-9.72,1.56H7.69v14.5H4.56Zm3.13,3v10.6c1.78,0,3.56,0,5.16,0,2.69,0,4.78-.18,6.17-1.31a5.37,5.37,0,0,0,1.82-4,5.27,5.27,0,0,0-1.95-4.08c-1.39-1-3.26-1.18-5.69-1.18Z"/><path class="cls-1" d="M102.49,135.17h7.16a22.94,22.94,0,0,1,7.25.79,7.71,7.71,0,0,1,5.12,7.51,7.41,7.41,0,0,1-.91,3.86c-1.61,3.26-4.73,4.51-9.9,4.51l11.25,14.5h-3.87l-11.2-14.5h-1.78v14.5h-3.12Zm3.12,3v10.6c1.74,0,3.52,0,5.17,0,2.69,0,4.77-.26,6.12-1.35a5.25,5.25,0,0,0,1.87-4c0-3-2.09-5.26-6.78-5.26Z"/><path class="cls-1" d="M232.23,150.76a16.43,16.43,0,1,1-16.67-16.37C225,134.39,232.23,141.47,232.23,150.76Zm-29.6.13a13.18,13.18,0,1,0,13.11-13.46A13.18,13.18,0,0,0,202.63,150.89Z"/><path class="cls-1" d="M310.5,135.17h7.2a22.65,22.65,0,0,1,7.21.79,7.76,7.76,0,0,1,5.12,7.51,7.87,7.87,0,0,1-3.6,6.81c-2.22,1.39-5.43,1.56-9.73,1.56h-3.08v14.5H310.5Zm3.12,3v10.6c1.78,0,3.56,0,5.17,0,2.69,0,4.77-.18,6.16-1.31a5.34,5.34,0,0,0,1.82-4,5.27,5.27,0,0,0-1.95-4.08c-1.39-1-3.26-1.18-5.69-1.18Z"/><path class="cls-1" d="M408.29,135.17h17.8v3H411.42V148h14.67v3H411.42V163.3h14.67v3h-17.8Z"/><path class="cls-1" d="M503.74,135.17h7.17a23,23,0,0,1,7.25.79,7.71,7.71,0,0,1,5.12,7.51,7.51,7.51,0,0,1-.91,3.86c-1.61,3.26-4.73,4.51-9.9,4.51l11.24,14.5h-3.86l-11.2-14.5h-1.78v14.5h-3.13Zm3.13,3v10.6c1.74,0,3.52,0,5.17,0,2.69,0,4.77-.26,6.12-1.35a5.24,5.24,0,0,0,1.86-4c0-3-2.08-5.26-6.77-5.26Z"/><path class="cls-1" d="M599.15,138.21v-3h17.11v3h-7v28.13h-3.12V138.21Z"/><path class="cls-1" d="M692.35,135.17h3.13v31.17h-3.13Z"/><path class="cls-1" d="M774.69,135.17h17.8v3H777.82V148h14.67v3H777.82V163.3h14.67v3h-17.8Z"/><path class="cls-1" d="M882,141.43c-1.69-2.22-3.17-3.82-5.73-3.82a4,4,0,0,0-4.21,3.95,6.28,6.28,0,0,0,2.78,4.81c5.86,4.35,10.16,7.34,10.16,12.38a8.58,8.58,0,0,1-8.77,8.37c-4.3,0-7.12-2.38-9.42-6.59l2.65-1.61c1.86,3.43,4.12,5.17,6.51,5.17a5.52,5.52,0,0,0,5.77-5.3c0-3.43-3.21-5.38-10.29-11.11a8.2,8.2,0,0,1-2.64-6,7.24,7.24,0,0,1,7.55-7.3c3.82,0,6.12,2.3,8.16,5.08Z"/><polygon class="cls-1" points="9.87 95.57 0 95.57 0 28.27 9.87 22.25 9.87 95.57"/><polygon class="cls-1" points="65.55 101.31 75.42 101.31 75.42 4.77 65.55 11.01 65.55 101.31"/><rect class="cls-1" y="41.12" width="9.87" height="59.99"/><polygon class="cls-1" points="0.36 52.53 0.36 62.4 75.06 14.82 75.06 4.95 0.36 52.53"/><polygon class="cls-1" points="0.36 91.24 0.36 101.11 75.06 101.31 75.06 91.44 0.36 91.24"/><polygon class="cls-1" points="96.79 101.31 86.92 101.31 86.92 4.77 96.79 11.01 96.79 101.31"/><rect class="cls-1" x="152.47" y="52.8" width="9.87" height="48.32"/><polygon class="cls-1" points="161.98 52.53 161.98 62.4 87.28 14.82 87.28 4.95 161.98 52.53"/><polygon class="cls-1" points="161.98 91.24 162.35 101.11 87.66 101.31 87.28 91.44 161.98 91.24"/><rect class="cls-1" x="86.77" y="52.8" width="9.91" height="65.44"/></g></g></svg>