<?xml version="1.0" encoding="UTF-8"?>
<!DOCTYPE svg PUBLIC "-//W3C//DTD SVG 1.1//EN" "http://www.w3.org/Graphics/SVG/1.1/DTD/svg11.dtd">
<svg version="1.1" xmlns="http://www.w3.org/2000/svg" xmlns:xlink="http://www.w3.org/1999/xlink" width="1024" height="55"  xml:space="preserve" id="blueshiftBoardHeader">
    <!-- Generated by PaintCode - http://www.paintcodeapp.com -->
    <g id="blueshiftBoardHeader-backgroundHeaderGroup">
        <path id="blueshiftBoardHeader-bezier" stroke="none" fill="rgb(41, 112, 162)" d="M 450.79,-0.15 L 275.64,6.14 395.87,13.8 611.18,-0.15 450.79,-0.15 Z M 450.79,-0.15" />
        <path id="blueshiftBoardHeader-bezier2" stroke="none" fill="rgb(0, 82, 136)" d="M 176.93,-0.15 L 275.63,6.14 450.78,-0.15 176.93,-0.15 Z M 176.93,-0.15" />
        <path id="blueshiftBoardHeader-bezier3" stroke="none" fill="rgb(0, 82, 136)" d="M 611.19,-0.15 L 395.87,13.8 690.69,32.58 1024.63,0.14 1024.63,-0.15 611.19,-0.15 Z M 611.19,-0.15" />
        <path id="blueshiftBoardHeader-bezier4" stroke="none" fill="rgb(0, 56, 112)" d="M 690.7,32.58 L 1024.63,53.86 1024.63,0.14 690.7,32.58 Z M 690.7,32.58" />
        <path id="blueshiftBoardHeader-bezier5" stroke="none" fill="rgb(8, 88, 142)" d="M 0.14,16.03 L 0.14,28.22 75.64,34.55 395.87,13.8 275.64,6.14 0.14,16.03 Z M 0.14,16.03" />
        <path id="blueshiftBoardHeader-bezier6" stroke="none" fill="rgb(0, 67, 122)" d="M 0.14,-0.15 L 0.14,16.03 275.64,6.14 176.94,-0.15 0.14,-0.15 Z M 0.14,-0.15" />
        <path id="blueshiftBoardHeader-bezier7" stroke="none" fill="rgb(0, 67, 122)" d="M 75.64,34.55 L 319.42,55 459.94,55 690.69,32.58 395.87,13.8 75.64,34.55 Z M 75.64,34.55" />
        <path id="blueshiftBoardHeader-bezier8" stroke="none" fill="rgb(0, 45, 103)" d="M 459.93,55 L 1024.64,55 1024.64,53.86 690.7,32.58 459.93,55 Z M 459.93,55" />
        <path id="blueshiftBoardHeader-bezier9" stroke="none" fill="rgb(0, 63, 119)" d="M 0.14,39.44 L 75.64,34.55 0.14,28.22 0.14,39.44 Z M 0.14,39.44" />
        <path id="blueshiftBoardHeader-bezier10" stroke="none" fill="rgb(0, 48, 105)" d="M 0.14,39.44 L 0.14,55 319.42,55 75.64,34.55 0.14,39.44 Z M 0.14,39.44" />
    </g>
</svg>
