<svg xmlns="http://www.w3.org/2000/svg" viewBox="0 0 147.008 53.214"><g id="b6130a42-bffb-41cd-ab87-77c7c0a57c09" data-name="Layer 2"><g id="f6dd4841-2e1d-4996-99dc-e4ef407852b6" data-name="Layer 1"><path d="M24.652,2.287V7.874a13.076,13.076,0,0,0-8.46-3.421A10.768,10.768,0,0,0,8.076,7.914a11.665,11.665,0,0,0-3.32,8.42,11.385,11.385,0,0,0,3.32,8.3,10.957,10.957,0,0,0,8.136,3.38,9.978,9.978,0,0,0,4.23-.81,12.111,12.111,0,0,0,2.014-1.093,23.587,23.587,0,0,0,2.2-1.66v5.688a17.031,17.031,0,0,1-8.5,2.287A15.686,15.686,0,0,1,4.716,27.749,15.5,15.5,0,0,1,0,16.374,16.044,16.044,0,0,1,3.947,5.728,15.715,15.715,0,0,1,16.516,0,15.962,15.962,0,0,1,24.652,2.287Z" transform="translate(3.356)" style="fill:#fff"/><path d="M29.425,21.859a9.8,9.8,0,0,1,3.056-7.266A10.243,10.243,0,0,1,39.93,11.6a10.3,10.3,0,0,1,7.488,3.015,10.038,10.038,0,0,1,3.037,7.408A9.983,9.983,0,0,1,47.4,29.449a10.442,10.442,0,0,1-7.549,2.975,10.016,10.016,0,0,1-7.428-3.036A10.208,10.208,0,0,1,29.425,21.859Zm4.656.081a6.648,6.648,0,0,0,1.578,4.675,5.557,5.557,0,0,0,4.271,1.74A5.556,5.556,0,0,0,44.2,26.636a6.485,6.485,0,0,0,1.6-4.595,6.487,6.487,0,0,0-1.6-4.595,5.562,5.562,0,0,0-4.271-1.74,5.509,5.509,0,0,0-4.23,1.74A6.335,6.335,0,0,0,34.081,21.94Z" transform="translate(3.356)" style="fill:#fff"/><polygon points="62.382 30.693 80.382 30.693 80.382 7.371 62.382 15.189 62.382 30.693" style="fill:none;stroke:#fff;stroke-width:5px"/><line x1="62.383" y1="5.368" x2="62.383" y2="31.86" style="fill:none;stroke:#fff;stroke-width:5px"/><text x="3.356"/><path d="M98.294,12.144h4.575V31.857H98.294V29.793a8.747,8.747,0,0,1-12.812-.324,10.991,10.991,0,0,1-2.651-7.529,10.65,10.65,0,0,1,2.651-7.387A8.548,8.548,0,0,1,92.121,11.6a8.381,8.381,0,0,1,6.173,2.833Zm-10.808,9.8A6.868,6.868,0,0,0,89,26.555a4.971,4.971,0,0,0,3.927,1.8,5.222,5.222,0,0,0,4.088-1.74,6.74,6.74,0,0,0,1.559-4.574,6.74,6.74,0,0,0-1.559-4.574,5.152,5.152,0,0,0-4.048-1.761,5.034,5.034,0,0,0-3.926,1.781A6.568,6.568,0,0,0,87.486,21.94Z" transform="translate(3.356)" style="fill:#fff"/><path d="M114.2.607V27.425h9.189v4.432h-13.9V.607Z" transform="translate(3.356)" style="fill:#fff"/><path d="M136.487,5.04V31.857h-4.716V5.04h-7.185V.607h19.066V5.04Z" transform="translate(3.356)" style="fill:#fff"/><path d="M17.251,40.99l-1.864,1.73a4.053,4.053,0,0,0-1.475-1.072,4.745,4.745,0,0,0-1.893-.375,5.527,5.527,0,0,0-2.737.733,5.415,5.415,0,0,0-2.036,1.936,4.881,4.881,0,0,0-.728,2.568A4.091,4.091,0,0,0,7.8,49.592a4.55,4.55,0,0,0,3.284,1.227,5.8,5.8,0,0,0,3.711-1.242l1.512,1.994a9.116,9.116,0,0,1-5.39,1.643,7.6,7.6,0,0,1-3.66-.817A6.159,6.159,0,0,1,4.833,50a6.748,6.748,0,0,1-.913-3.428A7.3,7.3,0,0,1,5,42.781a7.84,7.84,0,0,1,2.928-2.857,8.036,8.036,0,0,1,4.026-1.044A7.455,7.455,0,0,1,17.251,40.99Z" transform="translate(3.356)" style="fill:#ddd"/><path d="M27.627,38.88a6.324,6.324,0,0,1,4.639,1.808,6.2,6.2,0,0,1,1.827,4.593A7.961,7.961,0,0,1,33.012,49.3a7.544,7.544,0,0,1-2.876,2.9,8.255,8.255,0,0,1-4.123,1.012,6.315,6.315,0,0,1-4.653-1.727,6.119,6.119,0,0,1-1.739-4.545,7.927,7.927,0,0,1,2.078-5.5A7.641,7.641,0,0,1,27.627,38.88ZM27.534,41.3a5.2,5.2,0,0,0-2.676.709,5.278,5.278,0,0,0-1.953,2.041,5.574,5.574,0,0,0-.742,2.751,4.159,4.159,0,0,0,1.029,2.848,3.733,3.733,0,0,0,2.96,1.168,5.15,5.15,0,0,0,3.8-1.576,5.242,5.242,0,0,0,1.563-3.832,4.084,4.084,0,0,0-1.1-2.987A3.853,3.853,0,0,0,27.534,41.3Z" transform="translate(3.356)" style="fill:#ddd"/><path d="M38.28,39.224h2.578L39.3,50.522h4.236l-.3,2.348H36.416Z" transform="translate(3.356)" style="fill:#ddd"/><path d="M47.57,39.224h2.578l-1.563,11.3h4.236l-.3,2.348H45.706Z" transform="translate(3.356)" style="fill:#ddd"/><path d="M56.675,39.224h7.338L63.7,41.645H58.937l-.392,2.82h4.788l-.312,2.4H58.212l-.5,3.617h4.841l-.31,2.385H54.81Z" transform="translate(3.356)" style="fill:#ddd"/><path d="M79.277,40.99l-1.864,1.73a4.053,4.053,0,0,0-1.475-1.072,4.745,4.745,0,0,0-1.893-.375,5.527,5.527,0,0,0-2.737.733,5.425,5.425,0,0,0-2.037,1.936,4.89,4.89,0,0,0-.728,2.568,4.092,4.092,0,0,0,1.281,3.082,4.55,4.55,0,0,0,3.284,1.227,5.8,5.8,0,0,0,3.711-1.242l1.512,1.994a9.116,9.116,0,0,1-5.39,1.643,7.6,7.6,0,0,1-3.66-.817A6.159,6.159,0,0,1,66.859,50a6.738,6.738,0,0,1-.913-3.428,7.3,7.3,0,0,1,1.08-3.79,7.84,7.84,0,0,1,2.928-2.857A8.036,8.036,0,0,1,73.98,38.88,7.455,7.455,0,0,1,79.277,40.99Z" transform="translate(3.356)" style="fill:#ddd"/><path d="M81.619,39.224H89.95l-.3,2.429H86.808L85.276,52.87H82.732l1.533-11.217H81.3Z" transform="translate(3.356)" style="fill:#ddd"/><path d="M92.2,39.224H94.7L92.792,52.87H90.333Z" transform="translate(3.356)" style="fill:#ddd"/><path d="M104.809,38.88a6.324,6.324,0,0,1,4.639,1.808,6.2,6.2,0,0,1,1.827,4.593,7.961,7.961,0,0,1-1.081,4.022,7.537,7.537,0,0,1-2.876,2.9,8.255,8.255,0,0,1-4.123,1.012,6.315,6.315,0,0,1-4.653-1.727A6.119,6.119,0,0,1,96.8,46.942a7.927,7.927,0,0,1,2.078-5.5A7.641,7.641,0,0,1,104.809,38.88Zm-.093,2.422a5.2,5.2,0,0,0-2.676.709,5.285,5.285,0,0,0-1.953,2.041,5.574,5.574,0,0,0-.742,2.751,4.155,4.155,0,0,0,1.03,2.848,3.729,3.729,0,0,0,2.959,1.168,5.15,5.15,0,0,0,3.8-1.576,5.242,5.242,0,0,0,1.563-3.832,4.084,4.084,0,0,0-1.1-2.987A3.853,3.853,0,0,0,104.716,41.3Z" transform="translate(3.356)" style="fill:#ddd"/><path d="M115.435,39.224h2.235l4.922,9.277,1.267-9.277h2.5L124.5,52.87h-2.189l-4.986-9.379-1.281,9.379h-2.46Z" transform="translate(3.356)" style="fill:#ddd"/><path d="M137.352,41.125l-1.866,1.651q-1.149-1.484-2.142-1.484a1.179,1.179,0,0,0-.817.292.913.913,0,0,0-.325.7,1.606,1.606,0,0,0,.3.845,20.427,20.427,0,0,0,1.8,2.05,13.907,13.907,0,0,1,1.049,1.2,6.425,6.425,0,0,1,.867,1.526,4.108,4.108,0,0,1,.264,1.443,3.656,3.656,0,0,1-1.168,2.756,4.172,4.172,0,0,1-3,1.113,5.26,5.26,0,0,1-4.536-2.645l1.967-1.586a3.249,3.249,0,0,0,2.569,1.809,1.551,1.551,0,0,0,1.109-.427,1.368,1.368,0,0,0,.45-1.03,2,2,0,0,0-.273-.965,12.842,12.842,0,0,0-1.564-1.855,13.936,13.936,0,0,1-1.791-2.17,3.878,3.878,0,0,1-.574-1.949A3.517,3.517,0,0,1,133.3,38.88,4.865,4.865,0,0,1,137.352,41.125Z" transform="translate(3.356)" style="fill:#ddd"/><text x="3.356"/></g></g></svg>