<?xml version="1.0" encoding="utf-8"?>
<!-- Generator: Adobe Illustrator 25.0.0, SVG Export Plug-In . SVG Version: 6.00 Build 0)  -->
<svg version="1.1" id="Layer_1" xmlns="http://www.w3.org/2000/svg" xmlns:xlink="http://www.w3.org/1999/xlink" x="0px" y="0px"
	 viewBox="0 0 145 54" style="enable-background:new 0 0 145 54;" xml:space="preserve">
<style type="text/css">
	.st0{fill:#FFFFFF;}
	.st1{fill:none;stroke:#FFFFFF;stroke-width:4;}
	.st2{fill:#FFFFFF;stroke:#FFFFFF;stroke-width:4;}
	.st3{fill:#DDDDDD;}
</style>
<g>
	<path id="Path" class="st0" d="M25.1,2.9v5.6c-2.3-2.1-5.3-3.3-8.5-3.4c-3.1-0.1-6,1.2-8.1,3.5c-2.2,2.2-3.4,5.3-3.3,8.4
		c-0.1,3.1,1.1,6.1,3.3,8.3c2.1,2.2,5.1,3.4,8.1,3.4c1.5,0,2.9-0.2,4.2-0.8c0.7-0.3,1.4-0.7,2-1.1c0.8-0.5,1.5-1.1,2.2-1.7v5.7
		c-2.6,1.5-5.5,2.3-8.5,2.3c-4.3,0.1-8.4-1.6-11.4-4.7c-3.1-3-4.8-7.1-4.7-11.4c0-3.9,1.4-7.7,4-10.6C7.6,2.6,12.2,0.5,17,0.6
		C19.9,0.7,22.7,1.4,25.1,2.9z"/>
	<path id="Shape" class="st0" d="M29.9,22.5c-0.1-2.7,1-5.4,3-7.3c2-2,4.7-3.1,7.5-3c2.8-0.1,5.5,1,7.5,3c2,1.9,3.1,4.6,3,7.4
		c0.1,2.8-1,5.5-3,7.4c-2,2-4.7,3.1-7.5,3c-2.8,0.1-5.5-1-7.4-3C30.9,28.1,29.8,25.3,29.9,22.5z M34.6,22.6
		c-0.1,1.7,0.5,3.4,1.6,4.7c1.1,1.2,2.7,1.8,4.3,1.7c1.6,0.1,3.2-0.6,4.3-1.7c1.1-1.3,1.7-2.9,1.6-4.6c0.1-1.7-0.5-3.3-1.6-4.6
		c-1.1-1.2-2.7-1.8-4.3-1.7c-1.6-0.1-3.1,0.6-4.2,1.7C35.1,19.3,34.5,20.9,34.6,22.6L34.6,22.6z"/>
	<polygon id="Path_1_" class="st1" points="59.5,31.3 77.5,31.3 77.5,8 59.5,15.8 	"/>
	<line id="Path_2_" class="st2" x1="59.5" y1="6" x2="59.5" y2="32.5"/>
	<path id="Shape_1_" class="st0" d="M98.8,12.8h4.6v19.7h-4.6v-2.1c-1.7,1.7-4,2.7-6.5,2.6c-2.4-0.1-4.7-1.1-6.3-2.9
		c-1.8-2.1-2.7-4.8-2.7-7.5c-0.1-2.7,0.9-5.4,2.7-7.4c1.7-1.9,4.1-3,6.6-3c2.4,0,4.6,1.1,6.2,2.8L98.8,12.8z M88,22.6
		c-0.1,1.7,0.5,3.3,1.5,4.6c1,1.2,2.4,1.8,3.9,1.8c1.6,0.1,3.1-0.6,4.1-1.7c1.1-1.3,1.6-2.9,1.6-4.6c0.1-1.7-0.5-3.3-1.6-4.6
		c-1-1.1-2.5-1.8-4-1.8c-1.5,0-3,0.6-3.9,1.8C88.5,19.4,88,21,88,22.6L88,22.6z"/>
	<polygon id="Path_3_" class="st0" points="114.7,1.2 114.7,28.1 123.9,28.1 123.9,32.5 110,32.5 110,1.2 	"/>
	<polygon id="Path_4_" class="st0" points="137,5.7 137,32.5 132.3,32.5 132.3,5.7 125.1,5.7 125.1,1.2 144.2,1.2 144.2,5.7 	"/>
	<path id="Shape_2_" class="st3" d="M2.5,38.5h3c1.2-0.1,2.4,0.1,3.6,0.5c0.7,0.3,1.3,0.8,1.7,1.5c0.4,0.7,0.7,1.6,0.6,2.4
		c0,0.9-0.2,1.7-0.7,2.5c-0.5,0.7-1.3,1.2-2.1,1.5l3.6,6.7H9l-3.4-6.4H5.4v6.4H2.5V38.5z M5.4,44.4h0.9c0.7,0,1.3-0.1,1.9-0.4
		c0.4-0.3,0.6-0.7,0.5-1.2c0-0.3-0.1-0.6-0.2-0.8c-0.2-0.2-0.4-0.4-0.7-0.5c-0.5-0.1-1-0.2-1.6-0.2H5.4V44.4z"/>
	<polygon id="Path_5_" class="st3" points="26.9,38.5 35.1,38.5 35.1,41.3 29.8,41.3 29.8,44 35.1,44 35.1,46.7 29.8,46.7 
		29.8,50.7 35.1,50.7 35.1,53.5 26.9,53.5 	"/>
	<path id="Shape_3_" class="st3" d="M50.3,38.5h3c1.2-0.1,2.4,0.1,3.5,0.5c0.7,0.3,1.3,0.8,1.7,1.5c0.4,0.7,0.7,1.6,0.6,2.4
		c0,0.9-0.3,1.9-0.8,2.6c-0.6,0.7-1.4,1.2-2.2,1.4c-1,0.2-2,0.3-3,0.2v6.4h-2.8V38.5z M53.1,44.4H54c0.5,0,1,0,1.5-0.2
		c0.3-0.1,0.5-0.3,0.7-0.5c0.2-0.3,0.2-0.6,0.2-0.9c0-0.5-0.2-1-0.7-1.3c-0.6-0.2-1.2-0.4-1.8-0.3h-0.8L53.1,44.4z"/>
	<path id="Shape_4_" class="st3" d="M81.5,38.2c2.1,0,4,0.8,5.5,2.3c1.5,1.5,2.3,3.5,2.3,5.6c0,2.1-0.8,4.1-2.3,5.5
		c-1.5,1.5-3.5,2.3-5.6,2.3c-2.1,0-4.1-0.9-5.5-2.3c-2.5-2.6-2.9-6.4-1.2-9.5C76.1,39.6,78.7,38.2,81.5,38.2L81.5,38.2z M81.5,40.9
		c-1.3,0-2.6,0.5-3.5,1.5c-1,1-1.5,2.3-1.4,3.7c-0.1,1.5,0.6,3,1.8,3.9c0.9,0.7,2,1.1,3.2,1.1c1.3,0,2.6-0.5,3.4-1.5
		c1.9-2,1.9-5.2,0-7.2C84.1,41.5,82.8,40.9,81.5,40.9L81.5,40.9z"/>
	<path id="Shape_5_" class="st3" d="M104.7,38.5h3c1.2-0.1,2.4,0.1,3.5,0.4c0.7,0.3,1.3,0.8,1.7,1.5c0.4,0.7,0.7,1.6,0.6,2.4
		c0,0.9-0.2,1.7-0.7,2.5c-0.5,0.7-1.3,1.2-2.1,1.5l3.6,6.7h-3.1l-3.4-6.4h-0.3v6.4h-2.8L104.7,38.5z M107.5,44.4h0.9
		c0.6,0.1,1.3-0.1,1.9-0.4c0.4-0.3,0.6-0.7,0.5-1.2c0-0.3-0.1-0.6-0.2-0.8c-0.2-0.2-0.4-0.4-0.7-0.5c-0.5-0.1-1-0.2-1.6-0.2h-0.8
		V44.4z"/>
	<polygon id="Path_6_" class="st3" points="127.6,38.5 135.9,38.5 135.9,41.3 133.1,41.3 133.1,53.5 130.3,53.5 130.3,41.3 
		127.6,41.3 	"/>
</g>
</svg>
