<?xml version="1.0" encoding="UTF-8"?>
<svg width="145px" height="54px" viewBox="0 0 145 54" version="1.1" xmlns="http://www.w3.org/2000/svg" xmlns:xlink="http://www.w3.org/1999/xlink">
    <title>Untitled</title>
    <g id="Page-1" stroke="none" stroke-width="1" fill="none" fill-rule="evenodd">
        <g id="Asset-21">
            <path d="M25.15,2.93 L25.15,8.52 C22.8329521,6.39985758 19.829486,5.18569044 16.69,5.1 C13.6160335,5.03933268 10.6634641,6.29899855 8.58,8.56 C6.37676152,10.8081159 5.178892,13.8533023 5.26,17 C5.18702102,20.1039153 6.38652192,23.1026675 8.58,25.3 C10.7012477,27.5093996 13.6476175,28.7343357 16.71,28.68 C18.162096,28.7204423 19.6055694,28.4440325 20.94,27.87 C21.6392191,27.5659102 22.3087492,27.1976686 22.94,26.77 C23.7029535,26.2615417 24.4343016,25.7071865 25.13,25.11 L25.13,30.8 C22.5468781,32.2964069 19.6152534,33.086221 16.63,33.09 C12.3436905,33.1510457 8.21973874,31.4523101 5.22,28.39 C2.13532855,25.4120945 0.425859063,21.2869129 0.5,17 C0.490120299,13.0810191 1.91266261,9.29350025 4.5,6.35 C7.56814223,2.62733319 12.1773676,0.521839025 17,0.64 C19.8729968,0.657758281 22.6882087,1.44878102 25.15,2.93 Z" id="Path" stroke="#005D9C" fill="#005D9C" fill-rule="nonzero"></path>
            <path d="M29.93,22.5 C29.8702287,19.7668583 30.9583124,17.1336959 32.93,15.24 C34.9012081,13.267238 37.5917582,12.1837951 40.38,12.24 C43.1805398,12.180985 45.8845412,13.2640296 47.87,15.24 C49.8567376,17.1854762 50.9437227,19.8703293 50.87,22.65 C50.933476,25.4406119 49.8276936,28.1307449 47.82,30.07 C45.8122424,32.0493319 43.0886981,33.1315349 40.27,33.07 C37.4834428,33.1493385 34.7902512,32.0619125 32.84,30.07 C30.862323,28.0593152 29.8084019,25.3176716 29.93,22.5 Z M34.58,22.59 C34.4888768,24.2916061 35.0544485,25.9632645 36.16,27.26 C37.2644183,28.4306656 38.8219177,29.0653375 40.43,29 C42.0352092,29.0718156 43.5927587,28.4444186 44.7,27.28 C45.8096474,26.0161165 46.3835253,24.3698043 46.3,22.69 C46.3861638,21.0067977 45.8121157,19.3564094 44.7,18.09 C43.5955817,16.9193344 42.0380823,16.2846625 40.43,16.35 C38.8344954,16.2897384 37.2913018,16.9245273 36.2,18.09 C35.0932324,19.3209877 34.5118171,20.9360301 34.58,22.59 L34.58,22.59 Z" id="Shape" stroke="#005D9C" fill="#005D9C" fill-rule="nonzero"></path>
            <polygon id="Path" stroke="#005E9C" stroke-width="5" points="59.53 31.34 77.53 31.34 77.53 8.02 59.53 15.83"></polygon>
            <line x1="59.53" y1="6.01" x2="59.53" y2="32.51" id="Path" stroke="#005E9C" stroke-width="5"></line>
            <path d="M98.79,12.79 L103.37,12.79 L103.37,32.5 L98.79,32.5 L98.79,30.44 C97.0913926,32.1728073 94.7488618,33.1214645 92.323172,33.0588783 C89.8974822,32.9962921 87.606989,31.9280963 86,30.11 C84.2073136,28.0229441 83.2618132,25.3398636 83.35,22.59 C83.259022,19.8789268 84.2069453,17.2354728 86,15.2 C87.6551417,13.2597529 90.0900146,12.1596598 92.64,12.2 C95.0056101,12.2321301 97.2471321,13.2638842 98.81,15.04 L98.79,12.79 Z M88,22.59 C87.9241118,24.2577634 88.4572335,25.8962241 89.5,27.2 C90.4695652,28.364518 91.9149238,29.0265143 93.43,29 C94.9842339,29.0569858 96.4832009,28.4192835 97.52,27.26 C98.5865839,25.9816229 99.1422788,24.3537219 99.08,22.69 C99.1438202,21.0230144 98.588089,19.3914445 97.52,18.11 C96.5123402,16.9609534 95.0479305,16.3166131 93.52,16.35 C92.0097207,16.3257361 90.5678745,16.978786 89.59,18.13 C88.528275,19.3698028 87.962025,20.9581517 88,22.59 L88,22.59 Z" id="Shape" stroke="#005D9C" fill="#005D9C" fill-rule="nonzero"></path>
            <polygon id="Path" stroke="#005D9C" fill="#005D9C" fill-rule="nonzero" points="114.7 1.25 114.7 28.07 123.89 28.07 123.89 32.5 110 32.5 110 1.25"></polygon>
            <polygon id="Path" stroke="#005D9C" fill="#005D9C" fill-rule="nonzero" points="137 5.68 137 32.5 132.28 32.5 132.28 5.68 125.1 5.68 125.1 1.25 144.16 1.25 144.16 5.68"></polygon>
            <path d="M2.52,38.53 L5.52,38.53 C6.72514164,38.4744833 7.9305575,38.6336253 9.08,39 C9.78454813,39.3039798 10.3757374,39.8217077 10.77,40.48 C11.2123515,41.2116953 11.434545,42.0553361 11.41,42.91 C11.444165,43.788148 11.1952659,44.6540366 10.7,45.38 C10.1626517,46.088703 9.41832161,46.6128791 8.57,46.88 L12.12,53.55 L9,53.55 L5.63,47.17 L5.37,47.17 L5.37,53.52 L2.52,53.52 L2.52,38.53 Z M5.37,44.39 L6.26,44.39 C6.91080449,44.4383278 7.56212176,44.3032141 8.14,44 C8.50152426,43.7160404 8.69370117,43.2676276 8.65,42.81 C8.6498266,42.5210319 8.56271801,42.2388 8.4,42 C8.22993954,41.7630451 7.99323429,41.5820352 7.72,41.48 C7.20822607,41.3450457 6.67847669,41.2910585 6.15,41.32 L5.37,41.32 L5.37,44.39 Z" id="Shape" fill="#789AC6" fill-rule="nonzero"></path>
            <polygon id="Path" fill="#789AC6" fill-rule="nonzero" points="26.94 38.53 35.12 38.53 35.12 41.32 29.77 41.32 29.77 44 35.12 44 35.12 46.74 29.77 46.74 29.77 50.68 35.12 50.68 35.12 53.49 26.94 53.49"></polygon>
            <path d="M50.26,38.53 L53.26,38.53 C54.45738,38.4680594 55.6561991,38.6204517 56.8,38.98 C57.5130918,39.2736172 58.1126818,39.7890542 58.51,40.45 C58.9447225,41.1844779 59.1631088,42.0268251 59.14,42.88 C59.1711239,43.8178939 58.881915,44.7384248 58.32,45.49 C57.7490061,46.1952559 56.9677291,46.6997576 56.09,46.93 C55.1033017,47.130434 54.0960144,47.2110169 53.09,47.17 L53.09,53.52 L50.26,53.52 L50.26,38.53 Z M53.11,44.39 L54,44.39 C54.5020552,44.4177522 55.0052835,44.3637143 55.49,44.23 C55.7575976,44.1378055 55.9888062,43.9626475 56.15,43.73 C56.3154411,43.4743408 56.3991504,43.1743824 56.39,42.87 C56.4206579,42.355022 56.1572988,41.8670331 55.71,41.61 C55.1405759,41.3624779 54.5188322,41.2594265 53.9,41.31 L53.09,41.31 L53.11,44.39 Z" id="Shape" fill="#789AC6" fill-rule="nonzero"></path>
            <path d="M81.53,38.15 C83.5926898,38.1285253 85.5724432,38.9609627 87,40.45 C88.5034966,41.9288457 89.3317517,43.9615068 89.29,46.07 C89.3278908,48.1572441 88.498729,50.1667846 87,51.62 C85.5229589,53.0856072 83.5232986,53.9030256 81.4425468,53.8918829 C79.361795,53.8805107 77.3710964,53.0415033 75.91,51.56 C73.4530744,49.00639 72.9688492,45.140727 74.72,42.06 C76.1272589,39.6471086 78.7067347,38.1595348 81.5,38.15 L81.53,38.15 Z M81.53,40.94 C80.2019166,40.9061503 78.920822,41.4323789 78,42.39 C77.0493353,43.3747034 76.5371928,44.7019461 76.58,46.07 C76.5171806,47.5902265 77.1818594,49.0495492 78.37,50 C79.2623185,50.7420979 80.3894907,51.1426339 81.55,51.13 C82.855362,51.1460076 84.1073318,50.6125596 85,49.66 C86.9137766,47.6299316 86.9137766,44.4600684 85,42.43 C84.0954309,41.4623075 82.8245085,40.9212577 81.5,40.94 L81.53,40.94 Z" id="Shape" fill="#789AC6" fill-rule="nonzero"></path>
            <path d="M104.67,38.53 L107.67,38.53 C108.86673,38.4663221 110.065273,38.6152936 111.21,38.97 C111.914548,39.2739798 112.505737,39.7917077 112.9,40.45 C113.342352,41.1816953 113.564545,42.0253361 113.54,42.88 C113.572909,43.7565422 113.327905,44.6210568 112.84,45.35 C112.296371,46.0565821 111.549639,46.5799927 110.7,46.85 L114.25,53.52 L111.13,53.52 L107.76,47.17 L107.5,47.17 L107.5,53.52 L104.65,53.52 L104.67,38.53 Z M107.52,44.39 L108.42,44.39 C109.064708,44.4467378 109.712436,44.3220416 110.29,44.03 C110.651524,43.7460404 110.843701,43.2976276 110.8,42.84 C110.808068,42.5374341 110.720593,42.2400184 110.55,41.99 C110.37994,41.7530451 110.143234,41.5720352 109.87,41.47 C109.358226,41.3350457 108.828477,41.2810585 108.3,41.31 L107.52,41.31 L107.52,44.39 Z" id="Shape" fill="#789AC6" fill-rule="nonzero"></path>
            <polygon id="Path" fill="#789AC6" fill-rule="nonzero" points="127.6 38.53 135.88 38.53 135.88 41.34 133.15 41.34 133.15 53.52 130.26 53.52 130.26 41.34 127.6 41.34"></polygon>
        </g>
    </g>
</svg>