<svg xmlns="http://www.w3.org/2000/svg" viewBox="0 0 143.65 53.91"><defs><style>.cls-1{fill:#fff;}.cls-2{fill:none;stroke:#fff;stroke-miterlimit:10;stroke-width:4px;}.cls-3{fill:#d5d5d5;}</style></defs><g id="Layer_2" data-name="Layer 2"><g id="Layer_1-2" data-name="Layer 1"><path class="cls-1" d="M24.65,3V8.57a13.06,13.06,0,0,0-8.46-3.42A10.77,10.77,0,0,0,8.08,8.61,11.65,11.65,0,0,0,4.76,17a11.36,11.36,0,0,0,3.32,8.3,10.92,10.92,0,0,0,8.13,3.38,10,10,0,0,0,4.23-.81,12.24,12.24,0,0,0,2-1.09,24.38,24.38,0,0,0,2.19-1.66v5.69a17.07,17.07,0,0,1-8.5,2.28A15.65,15.65,0,0,1,4.72,28.45,15.5,15.5,0,0,1,0,17.07,16,16,0,0,1,4,6.43,15.7,15.7,0,0,1,16.52.7,15.91,15.91,0,0,1,24.65,3Z"/><path class="cls-1" d="M29.43,22.56a9.79,9.79,0,0,1,3-7.27,10.27,10.27,0,0,1,7.45-3,10.3,10.3,0,0,1,7.49,3,10,10,0,0,1,3,7.41,10,10,0,0,1-3.05,7.43,10.46,10.46,0,0,1-7.55,3,10,10,0,0,1-7.43-3A10.2,10.2,0,0,1,29.43,22.56Zm4.65.08a6.68,6.68,0,0,0,1.58,4.68,5.56,5.56,0,0,0,4.27,1.74,5.58,5.58,0,0,0,4.27-1.72,6.47,6.47,0,0,0,1.6-4.6,6.45,6.45,0,0,0-1.6-4.59,5.56,5.56,0,0,0-4.27-1.74,5.51,5.51,0,0,0-4.23,1.74A6.33,6.33,0,0,0,34.08,22.64Z"/><polygon class="cls-2" points="59.03 31.39 77.03 31.39 77.03 8.07 59.03 15.89 59.03 31.39"/><line class="cls-2" x1="59.03" y1="6.07" x2="59.03" y2="32.56"/><text/><path class="cls-1" d="M98.29,12.84h4.58V32.56H98.29V30.49a8.75,8.75,0,0,1-12.81-.32,11,11,0,0,1-2.65-7.53,10.65,10.65,0,0,1,2.65-7.39,8.55,8.55,0,0,1,6.64-2.95,8.36,8.36,0,0,1,6.17,2.83Zm-10.8,9.8A6.84,6.84,0,0,0,89,27.25a5,5,0,0,0,3.93,1.81A5.23,5.23,0,0,0,97,27.32a6.77,6.77,0,0,0,1.56-4.58A6.72,6.72,0,0,0,97,18.17a5.14,5.14,0,0,0-4-1.76A5.05,5.05,0,0,0,89,18.19,6.59,6.59,0,0,0,87.49,22.64Z"/><path class="cls-1" d="M114.2,1.31V28.12h9.19v4.44h-13.9V1.31Z"/><path class="cls-1" d="M136.49,5.74V32.56h-4.72V5.74h-7.18V1.31h19.06V5.74Z"/><path class="cls-3" d="M4.77,39.92H7.14a8.86,8.86,0,0,1,3.09.38,3.77,3.77,0,0,1,1.68,1.32,3.42,3.42,0,0,1,.57,2A3.72,3.72,0,0,1,11.63,46a4.47,4.47,0,0,1-2.54,1.41l3,6.12H9.4l-2.91-6H6.28l-.82,6H2.9Zm1.82,5.46A5.71,5.71,0,0,0,9.3,45a1.45,1.45,0,0,0,.62-1.27,1.28,1.28,0,0,0-.25-.81,1.39,1.39,0,0,0-.73-.45A8.73,8.73,0,0,0,7,42.29Z"/><path class="cls-3" d="M18.73,39.92h7.34l-.32,2.42H21l-.39,2.83h4.79l-.31,2.4H20.27l-.5,3.62h4.84l-.31,2.38H16.87Z"/><path class="cls-3" d="M43.65,41.69l-1.86,1.73a4.17,4.17,0,0,0-1.48-1.07A4.73,4.73,0,0,0,38.42,42a5.53,5.53,0,0,0-2.74.74,5.32,5.32,0,0,0-2,1.93,4.86,4.86,0,0,0-.73,2.57,4.06,4.06,0,0,0,1.28,3.08,4.54,4.54,0,0,0,3.28,1.23,5.77,5.77,0,0,0,3.71-1.24l1.52,2a9.11,9.11,0,0,1-5.4,1.64,7.6,7.6,0,0,1-3.65-.81,6.22,6.22,0,0,1-2.43-2.4,6.75,6.75,0,0,1-.91-3.43,7.3,7.3,0,0,1,1.08-3.79,7.88,7.88,0,0,1,2.93-2.86,8.08,8.08,0,0,1,4-1A7.43,7.43,0,0,1,43.65,41.69Z"/><path class="cls-3" d="M50.23,39.92H52.6a8.86,8.86,0,0,1,3.09.38,3.72,3.72,0,0,1,1.68,1.32,3.42,3.42,0,0,1,.57,2A3.71,3.71,0,0,1,57.1,46a4.46,4.46,0,0,1-2.55,1.41l3,6.12H54.87l-2.91-6h-.21l-.82,6H48.37Zm1.82,5.46A5.71,5.71,0,0,0,54.76,45a1.43,1.43,0,0,0,.63-1.27,1.28,1.28,0,0,0-.25-.81,1.39,1.39,0,0,0-.73-.45,8.79,8.79,0,0,0-1.93-.13Z"/><path class="cls-3" d="M64.27,39.92h2.55l-1.14,8.43a13.23,13.23,0,0,0-.15,1.56,1.54,1.54,0,0,0,.48,1.2,2,2,0,0,0,1.39.43,2.44,2.44,0,0,0,1.28-.33,1.61,1.61,0,0,0,.65-.8,9.38,9.38,0,0,0,.48-2.23l1.13-8.26h2.58l-1.1,8.15a12.29,12.29,0,0,1-.9,3.61,3.8,3.8,0,0,1-1.61,1.66,5.33,5.33,0,0,1-2.57.57,4.44,4.44,0,0,1-3.18-1.08,3.91,3.91,0,0,1-1.14-3,18.62,18.62,0,0,1,.22-2.41Z"/><path class="cls-3" d="M79.66,39.92h2.51L80.26,53.57H77.8Z"/><path class="cls-3" d="M86.56,39.92h8.33l-.3,2.43H91.75L90.21,53.57H87.67L89.2,42.35h-3Z"/><path class="cls-3" d="M99.46,39.92H102l-1.91,13.65H97.59Z"/><path class="cls-3" d="M108.12,39.92h2.24l4.92,9.28,1.27-9.28h2.5l-1.86,13.65H115l-5-9.38-1.29,9.38h-2.46Z"/><path class="cls-3" d="M137.22,42.47l-2.14,1.39a5.69,5.69,0,0,0-1.79-1.47,4.38,4.38,0,0,0-2-.42,4.64,4.64,0,0,0-3.84,1.91,5.27,5.27,0,0,0-1.18,3.35,4.19,4.19,0,0,0,1.21,3.06,4,4,0,0,0,3,1.23,4.59,4.59,0,0,0,2.4-.64A4.76,4.76,0,0,0,134.67,49h-4.26l.31-2.42h6.91a7.83,7.83,0,0,1-2.12,5.37,6.77,6.77,0,0,1-5,2,6.4,6.4,0,0,1-5.22-2.3,6.66,6.66,0,0,1-1.53-4.4A7.35,7.35,0,0,1,126,41.84a7.24,7.24,0,0,1,5.34-2.26,7.42,7.42,0,0,1,2.24.34,7.21,7.21,0,0,1,2,.93A8.24,8.24,0,0,1,137.22,42.47Z"/></g></g></svg>