<svg xmlns="http://www.w3.org/2000/svg" viewBox="0 0 82.13 104.69"><g id="Layer_2" data-name="Layer 2"><g id="Layer_1-2" data-name="Layer 1"><g id="Regular-M"><path d="M0,89.4q0,15.31,15.14,15.29H67q15.17,0,15.14-15.29V15.33C82.13,5.18,77.1,0,67,0H15.14C5,0,0,5.18,0,15.33Zm7.86-.14V15.48c0-4.88,2.59-7.62,7.67-7.62H66.6c5.08,0,7.67,2.74,7.67,7.62V89.26c0,4.88-2.59,7.57-7.67,7.57H15.53C10.45,96.83,7.86,94.14,7.86,89.26ZM22.61,28.32h37a3,3,0,0,0,3-3.08,2.9,2.9,0,0,0-3-2.93h-37a3,3,0,0,0-3.08,2.93A3,3,0,0,0,22.61,28.32Zm0,17h37a3,3,0,0,0,3-3.07,2.9,2.9,0,0,0-3-2.93h-37a3,3,0,0,0-3.08,2.93A3,3,0,0,0,22.61,45.36Zm0,17H40.14a3,3,0,1,0,0-6H22.61a3,3,0,1,0,0,6Z"/></g></g></g></svg>