<svg xmlns="http://www.w3.org/2000/svg" viewBox="0 0 18.96 24"><g id="Layer_2" data-name="Layer 2"><g id="Layer_1-2" data-name="Layer 1"><g id="Regular-S"><path d="M0,20.37C0,22.8,1.18,24,3.57,24h11.8c2.4,0,3.59-1.2,3.59-3.63V3.63C19,1.21,17.77,0,15.37,0H3.57C1.18,0,0,1.21,0,3.63Zm2.05,0V3.66A1.46,1.46,0,0,1,3.69,2.05H15.27A1.46,1.46,0,0,1,16.9,3.66V20.34A1.46,1.46,0,0,1,15.27,22H3.69A1.46,1.46,0,0,1,2.05,20.34ZM5.21,9.15H7a.65.65,0,0,0,.69-.51L8,7.22l.87,4.2a.64.64,0,0,0,1.25,0L11.2,8l.16.64a.62.62,0,0,0,.67.54h1.71a.63.63,0,1,0,0-1.26H12.43l-.59-2.2a.63.63,0,0,0-1.22,0l-1,3.13-1-4.58a.61.61,0,0,0-1.19,0L6.58,7.89H5.21a.64.64,0,0,0-.64.64A.63.63,0,0,0,5.21,9.15Zm.14,5.75h8.27a.76.76,0,0,0,.77-.78.74.74,0,0,0-.77-.75H5.35a.74.74,0,0,0-.78.75A.76.76,0,0,0,5.35,14.9Zm0,3.88H9.22A.74.74,0,0,0,10,18a.75.75,0,0,0-.77-.78H5.35a.76.76,0,0,0-.78.78A.75.75,0,0,0,5.35,18.78Z"/></g></g></g></svg>