<svg xmlns="http://www.w3.org/2000/svg" viewBox="0 0 88.43 88.43"><g id="Layer_2" data-name="Layer 2"><g id="Layer_1-2" data-name="Layer 1"><g id="Light-M"><path d="M14.4,88.43H74c9.52,0,14.41-4.89,14.41-14.26V14.31C88.43,4.88,83.54,0,74,0H14.4C4.88,0,0,4.83,0,14.31V74.17C0,83.59,4.88,88.43,14.4,88.43Zm.1-6.06c-5.47,0-8.45-2.88-8.45-8.54V14.6C6.05,9,9,6.05,14.5,6.05H73.88c5.42,0,8.49,2.93,8.49,8.55V73.83c0,5.66-3.07,8.54-8.49,8.54ZM44.24,71.63a1.9,1.9,0,0,0,1.95-1.95V66c7.72-.64,13.43-5.13,13.43-12.07,0-6.29-4.1-10.1-12.45-11.71l-1-.25V27.29c4.15.54,7.13,3,8,6.6a2.4,2.4,0,0,0,2.44,2,2.2,2.2,0,0,0,2.3-2.35,7,7,0,0,0-.2-1.36c-1.17-5.13-6.15-8.84-12.5-9.43V19.38a1.9,1.9,0,0,0-1.95-1.95,1.84,1.84,0,0,0-2,1.95v3.37c-7.23.69-12.6,5.28-12.6,11.63,0,5.85,4.05,9.47,12.11,11.32l.49.15V61.52c-4.94-.58-8.16-3.37-8.89-7.22a2.35,2.35,0,0,0-2.39-2,2.26,2.26,0,0,0-2.3,2.39,7,7,0,0,0,.2,1.37c1.31,5.61,6.64,9.37,13.38,10v3.71A1.87,1.87,0,0,0,44.24,71.63ZM42.29,41l-.3-.1c-5-1.37-7.47-3.42-7.47-6.74,0-3.52,3.18-6.25,7.77-6.89Zm3.9,5.81,1,.24c5.47,1.42,7.61,3.56,7.61,7.08,0,4-3.12,6.89-8.64,7.37Z"/></g></g></g></svg>