<svg xmlns="http://www.w3.org/2000/svg" viewBox="0 0 80.52 72.85"><g id="Layer_2" data-name="Layer 2"><g id="Layer_1-2" data-name="Layer 1"><g id="Symbols"><g id="Regular-S"><path d="M10.94,72.85H69.53c6.79,0,11-4.78,11-11A11.06,11.06,0,0,0,79,56.49L49.66,5.57a10.72,10.72,0,0,0-18.8,0L1.51,56.49A10.77,10.77,0,0,0,0,61.87C0,68.07,4.15,72.85,10.94,72.85ZM11,66a4,4,0,0,1-4-4.1,4,4,0,0,1,.49-2l29.3-51a3.86,3.86,0,0,1,3.41-2,3.92,3.92,0,0,1,3.42,2l29.3,51a4.33,4.33,0,0,1,.49,2,4,4,0,0,1-4,4.1ZM40.23,46.83c2.1,0,3.28-1.13,3.32-3.37l.59-20a3.76,3.76,0,0,0-4-3.81,3.68,3.68,0,0,0-3.91,3.76l.59,20.07C36.91,45.65,38.09,46.83,40.23,46.83Zm0,12.79a4.3,4.3,0,1,0-4.44-4.3A4.42,4.42,0,0,0,40.23,59.62Z"/></g></g></g></g></svg>