<svg xmlns="http://www.w3.org/2000/svg" viewBox="0 0 99.71 103.67"><g id="Layer_2" data-name="Layer 2"><g id="Layer_1-2" data-name="Layer 1"><g id="Regular-M"><path d="M24.61,71c-.29,18.45,14.7,32.47,38.18,32.66l6.94,0c6.54,0,11.37-.44,14.11-1.17,4-1,7.81-3.42,7.81-8.2a8.2,8.2,0,0,0-1.17-4.45c-.39-.63-.34-1.17.29-1.41a8.89,8.89,0,0,0,5.76-8.25,9.63,9.63,0,0,0-1.75-5.72c-.59-.73-.49-1.36.39-1.95A8.5,8.5,0,0,0,99,65c0-2.3-.73-4.83-2.1-6.06-.78-.73-.63-1.22.2-1.95a8.25,8.25,0,0,0,2.59-6.49,8.73,8.73,0,0,0-8.79-8.84H73.1c-4.55,0-7.52-2.34-7.52-6.06C65.58,28.81,74,16.41,74,7.47,74,2.78,71,0,67,0c-3.61,0-5.42,2.49-7.37,6.3C52.2,21,42.14,32.81,34.47,43,28,51.61,24.8,59,24.61,71ZM0,71.29c0,15,9.38,27.54,21.87,27.54h8.94c-9.08-6.59-13.18-16.6-13-28a44,44,0,0,1,9.52-27.25H20C8.69,43.55,0,55.76,0,71.29Z"/></g></g></g></svg>