<svg xmlns="http://www.w3.org/2000/svg" viewBox="0 0 1245 237.5" preserveAspectRatio="none"><g id="eb2af630-6e3e-4ccc-b616-38682efa08db" data-name="Layer 2"><g id="b8e5740f-3030-4226-b7fe-ebbeaba5bb28" data-name="Layer 1"><rect y="0.5" width="1245" height="237"/><polygon id="e125de01-6967-467f-99e0-c62ce4af5207" data-name="blueshiftBoardHeader-bezier" points="546.974 0.5 334 27.554 480.194 60.5 742 0.5 546.974 0.5" style="fill:#2970a2"/><path d="M480.2,61.013l-.111-.025L331.115,27.416,546.974,0H746.42ZM336.885,27.691l143.308,32.3L737.58,1H547.005Z" style="fill:#2970a2"/><polygon id="b2c34a49-6128-4d38-ab20-e156653e94e2" data-name="blueshiftBoardHeader-bezier2" points="215 0.5 334.658 27.5 547 0.5 215 0.5" style="fill:#005288"/><polygon id="ebd498be-68ba-41a1-83d5-75c41447ce09" data-name="blueshiftBoardHeader-bezier3" points="741.633 0.5 480 60.596 838.233 141.5 1244 1.749 1244 0.5 741.633 0.5" style="fill:#005288"/><polygon id="bda38e88-ed88-4c76-81d2-b2b3afe68dfd" data-name="blueshiftBoardHeader-bezier4" points="839 140.994 1245 232.5 1245 1.5 839 140.994" style="fill:#003870"/><polygon id="b18daa2a-6526-47e4-aa95-6b512dedcc63" data-name="blueshiftBoardHeader-bezier5" points="0 69.97 0 122.317 91.578 149.5 480 60.394 334.167 27.5 0 69.97" style="fill:#08588e"/><polygon id="edc6f4ac-c25c-4daa-b160-0e658f153079" data-name="blueshiftBoardHeader-bezier6" points="0 0.5 0 69.5 334 27.324 214.342 0.5 0 0.5" style="fill:#00437a"/><polygon id="a0772b61-0485-4a59-8f71-a7be07fceeb5" data-name="blueshiftBoardHeader-bezier7" points="93 149.644 388.683 237.5 559.121 237.5 839 141.181 481.41 60.5 93 149.644" style="fill:#00437a"/><polygon id="b5e7e6c8-6b95-417b-bdd6-7df01e49f3f4" data-name="blueshiftBoardHeader-bezier8" points="559 237.5 1244 237.5 1244 232.619 838.927 141.5 559 237.5" style="fill:#002d67"/><polygon id="f9c641b6-9c33-42fe-8162-bcb725868c79" data-name="blueshiftBoardHeader-bezier9" points="0 170.5 92 149.58 0 122.5 0 170.5" style="fill:#003f77"/><polygon id="b2a1b08e-14af-49b5-8a0a-d58c2375edbc" data-name="blueshiftBoardHeader-bezier10" points="0 170.543 0 237.5 388 237.5 91.75 149.5 0 170.543" style="fill:#003069"/></g></g></svg>