<svg xmlns="http://www.w3.org/2000/svg" viewBox="0 0 80.13 67.43"><g id="Layer_2" data-name="Layer 2"><g id="Capa_1" data-name="Capa 1"><path d="M48.35,11.57a14.57,14.57,0,0,1,6.78,10.82A11.75,11.75,0,1,0,60.1,0,11.76,11.76,0,0,0,48.35,11.57ZM40.66,35.64A11.76,11.76,0,1,0,28.9,23.88,11.76,11.76,0,0,0,40.66,35.64Zm5,.8h-10a15.06,15.06,0,0,0-15,15v12.2l0,.19.84.26A68.33,68.33,0,0,0,42,67.43c11.06,0,17.47-3.15,17.87-3.35l.78-.4h.08V51.48A15,15,0,0,0,45.64,36.44ZM65.08,24.3H55.19a14.5,14.5,0,0,1-4.47,10.09A17.9,17.9,0,0,1,63.49,51.5v3.76c9.77-.36,15.4-3.13,15.77-3.31l.79-.4h.08V39.35A15.07,15.07,0,0,0,65.08,24.3Zm-45-.8a11.69,11.69,0,0,0,6.25-1.81,14.61,14.61,0,0,1,5.47-9.28c0-.22,0-.43,0-.66A11.75,11.75,0,1,0,20,23.5ZM30.59,34.39a14.51,14.51,0,0,1-4.47-10c-.36,0-.73-.06-1.1-.06h-10A15.07,15.07,0,0,0,0,39.35v12.2l0,.19L.87,52a70.79,70.79,0,0,0,17,3.19V51.5A17.88,17.88,0,0,1,30.59,34.39Z"/></g></g></svg>