<svg xmlns="http://www.w3.org/2000/svg" viewBox="0 0 108.44 103.63"><g id="Layer_2" data-name="Layer 2"><g id="Layer_1-2" data-name="Layer 1"><g id="Symbols"><g id="Regular-M"><path d="M20.81,102.73c2,1.57,4.54,1,7.56-1.17l25.83-19,25.88,19c3,2.2,5.52,2.74,7.57,1.17s2.44-4,1.22-7.56L78.67,64.79,104.74,46c3-2.14,4.25-4.39,3.47-6.83s-3.08-3.52-6.84-3.47l-32,.2L59.67,5.42C58.5,1.81,56.74,0,54.2,0S50,1.81,48.78,5.42L39.07,35.94l-32-.2c-3.76-.05-6,1.13-6.83,3.47S.69,43.9,3.72,46L29.79,64.79,19.58,95.17C18.36,98.73,18.8,101.22,20.81,102.73Z"/></g></g></g></g></svg>